IKResults
version=1
nRows=5
nColumns=63
inDegrees=yes

Units are S.I. units (second, meters, Newtons, ...)
If the header above contains a line with 'inDegrees', this indicates whether rotational values are in degrees (yes) or radians (no).

endheader
time	pelvis_tilt	pelvis_list	pelvis_rotation	pelvis_tx	pelvis_ty	pelvis_tz	hip_flexion_r	hip_adduction_r	hip_rotation_r	knee_angle_r	knee_angle_r_beta	ankle_angle_r	subtalar_angle_r	mtp_angle_r	hip_flexion_l	hip_adduction_l	hip_rotation_l	knee_angle_l	knee_angle_l_beta	ankle_angle_l	subtalar_angle_l	mtp_angle_l	L5_S1_Flex_Ext	L5_S1_Lat_Bending	L5_S1_axial_rotation	L4_L5_Flex_Ext	L4_L5_Lat_Bending	L4_L5_axial_rotation	L3_L4_Flex_Ext	L3_L4_Lat_Bending	L3_L4_axial_rotation	L2_L3_Flex_Ext	L2_L3_Lat_Bending	L2_L3_axial_rotation	L1_L2_Flex_Ext	L1_L2_Lat_Bending	L1_L2_axial_rotation	L1_T12_Flex_Ext	L1_T12_Lat_Bending	L1_T12_axial_rotation	Abs_r3	Abs_r2	Abs_r1	Abs_t1	Abs_t2	neck_flexion	neck_bending	neck_rotation	arm_flex_r	arm_add_r	arm_rot_r	elbow_flex_r	pro_sup_r	wrist_flex_r	wrist_dev_r	arm_flex_l	arm_add_l	arm_rot_l	elbow_flex_l	pro_sup_l	wrist_flex_l	wrist_dev_l
      4.03333333	     91.05874489	     27.46975458	    -36.93642006	     -1.03763902	      0.29433626	     -0.22837899	     20.00219969	    -24.53354269	    -32.97999570	     26.36756846	      0.46020089	      2.38344880	    -19.61688337	      0.00000000	    -18.23694907	     -4.74674443	     29.02527594	      9.43797525	      0.16472374	    -49.19666891	      4.22193418	      0.00000000	     -8.48521166	      1.44113590	     -9.77506905	    -15.75788658	      1.91671075	    -10.38601086	    -13.94035424	      3.50397784	    -10.38601086	     -9.69774841	      3.50397784	     -8.55318542	     -7.87936755	      2.93876434	     -7.94224360	     -4.84844995	      2.23231952	     -7.33130179	    -60.60901840	     16.30241758	    -54.36600153	      0.00000000	      0.00000000	     12.40274443	      9.46842261	    -40.39055221	    147.25818397	     12.98719792	    307.60280427	     40.61526045	     89.99559364	      0.00000000	      0.00000000	     71.72242830	      9.77237246	     -1.36783999	     30.09664971	     89.99559364	      0.00000000	      0.00000000
      4.06666667	     91.01145254	     27.48567056	    -36.82410252	     -1.03762710	      0.29456650	     -0.22844758	     19.96046925	    -24.54539807	    -33.18487752	     26.29099004	      0.45886434	      2.35297256	    -19.61873702	      0.00000000	    -18.19263573	     -4.79404448	     28.89619042	      9.38680946	      0.16383073	    -49.26690864	      4.13055849	      0.00000000	     -8.47810210	      1.44683968	     -9.81999096	    -15.74468340	      1.92429677	    -10.43374040	    -13.92867393	      3.51784599	    -10.43374040	     -9.68962289	      3.51784599	     -8.59249209	     -7.87276561	      2.95039547	     -7.97874266	     -4.84438754	      2.24115466	     -7.36499322	    -60.55823546	     16.36693978	    -54.61584373	      0.00000000	      0.00000000	     12.31498998	      9.35750336	    -40.16417454	    147.31650953	     13.01627049	    307.54340832	     40.18870355	     89.99559364	      0.00000000	      0.00000000	     71.64752933	      9.53995953	     -1.20205672	     30.27539591	     89.99559364	      0.00000000	      0.00000000
      4.10000000	     90.99439055	     27.51437520	    -36.72538120	     -1.03765294	      0.29468732	     -0.22847983	     19.91287933	    -24.56517215	    -33.28908084	     26.20179156	      0.45730753	      2.32581673	    -19.62326802	      0.00000000	    -18.16672744	     -4.82419607	     28.81835901	      9.32820283	      0.16280785	    -49.25919412	      4.05849867	      0.00000000	     -8.47169445	      1.44851255	     -9.86250191	    -15.73278376	      1.92652169	    -10.47890828	    -13.91814681	      3.52191341	    -10.47890828	     -9.68229958	      3.52191341	     -8.62968917	     -7.86681546	      2.95380679	     -8.01328280	     -4.84072621	      2.24374594	     -7.39687643	    -60.51246627	     16.38586364	    -54.85227688	      0.00000000	      0.00000000	     12.25687255	      9.32751889	    -39.96336142	    147.35644604	     13.03680627	    307.46692494	     39.82657472	     89.99559364	      0.00000000	      0.00000000	     71.60737054	      9.32426383	     -1.01708965	     30.36111664	     89.99559364	      0.00000000	      0.00000000
      4.13333333	     90.97787870	     27.53443742	    -36.66987134	     -1.03765643	      0.29474955	     -0.22849646	     19.89911853	    -24.56756863	    -33.33784549	     26.14530847	      0.45632172	      2.30843170	    -19.61809694	      0.00000000	    -18.16345186	     -4.84638099	     28.76921912	      9.25036363	      0.16144930	    -49.19729541	      3.99827849	      0.00000000	     -8.46807214	      1.44757569	     -9.89783680	    -15.72605678	      1.92527566	    -10.51645160	    -13.91219572	      3.51963552	    -10.51645160	     -9.67815965	      3.51963552	     -8.66060720	     -7.86345179	      2.95189634	     -8.04199240	     -4.83865642	      2.24229474	     -7.42337760	    -60.48659251	     16.37526567	    -55.04879892	      0.00000000	      0.00000000	     12.26021428	      9.31057392	    -39.81951051	    147.35592904	     13.08138188	    307.41372719	     39.60653456	     89.99559364	      0.00000000	      0.00000000	     71.60438347	      9.13238268	     -0.90608053	     30.37680287	     89.99559364	      0.00000000	      0.00000000
      4.16666667	     90.97409851	     27.53964500	    -36.65812959	     -1.03764166	      0.29472842	     -0.22845494	     19.89793878	    -24.56027922	    -33.34416381	     26.13127408	      0.45607677	      2.30534013	    -19.62820762	      0.00000000	    -18.15831913	     -4.85325100	     28.75609351	      9.22999309	      0.16109377	    -49.18030313	      3.98206395	      0.00000000	     -8.46660941	      1.44630810	     -9.90620592	    -15.72334033	      1.92358978	    -10.52534379	    -13.90979260	      3.51655352	    -10.52534379	     -9.67648789	      3.51655352	     -8.66793018	     -7.86209350	      2.94931149	     -8.04879231	     -4.83782062	      2.24033125	     -7.42965444	    -60.47614434	     16.36092654	    -55.09534544	      0.00000000	      0.00000000	     12.26614197	      9.30867692	    -39.77691921	    147.33680550	     13.09320275	    307.39809520	     39.54424389	     89.99559364	      0.00000000	      0.00000000	     71.61301210	      9.08649302	     -0.88272755	     30.37855895	     89.99559364	      0.00000000	      0.00000000
